PathFileType	4	(X/Y/Z)	Patient4_TMGait_0pt2_03_left_19.trc.trc
DataRate	CameraRate	NumFrames	NumMarkers	Units	OrigDataRate	OrigDataStartFrame	OrigNumFrames
45.602605863192	45.602605863192	4	33	mm	45.602605863192	53	       141
Frame#	Time	Sacral			L.Shoulder			Chest			R.Shoulder			Neck			R.ASIS			L.ASIS			R.Thigh.Superior			R.Thigh.Lateral			R.Thigh.Inferior			R.Patella			L.Thigh.Superior			L.Thigh.Lateral			L.Thigh.Inferior			L.Patella			L.Shank.Superior			L.Shank.Lateral			L.Shank.Inferior			R.Shank.Superior			R.Shank.Lateral			R.Shank.Inferior			R.Heel			R.Midfoot.Superior			R.Midfoot.Lateral			R.Toe			L.Heel			L.Midfoot.Lateral			L.Midfoot.Superior			L.Toe			L.Elbow			L.Wrist			R.Elbow			R.Wrist			
		X1	Y1	Z1	X2	Y2	Z2	X3	Y3	Z3	X4	Y4	Z4	X5	Y5	Z5	X6	Y6	Z6	X7	Y7	Z7	X8	Y8	Z8	X9	Y9	Z9	X10	Y10	Z10	X11	Y11	Z11	X12	Y12	Z12	X13	Y13	Z13	X14	Y14	Z14	X15	Y15	Z15	X16	Y16	Z16	X17	Y17	Z17	X18	Y18	Z18	X19	Y19	Z19	X20	Y20	Z20	X21	Y21	Z21	X22	Y22	Z22	X23	Y23	Z23	X24	Y24	Z24	X25	Y25	Z25	X26	Y26	Z26	X27	Y27	Z27	X28	Y28	Z28	X29	Y29	Z29	X30	Y30	Z30	X31	Y31	Z31	X32	Y32	Z32	X33	Y33	Z33	

53	40.800285714286	772.251991793909	993.857403367260	424.229696323084	943.224874526943	1423.640370194379	236.987123150017	1054.566638970323	1351.457620417939	389.608816350115	986.455951001826	1423.351315217498	569.592960933076	933.973473566169	1483.887506621508	396.419269793163	1007.714978707815	931.095117213079	528.360448070235	980.238929709809	952.447176508625	257.183156477695	1058.982286702378	733.415930217756	510.464576039112	995.095940323851	626.026594437971	588.964755166687	1073.257629087976	567.299717395336	510.825164160383	1073.951402231207	460.700403140857	539.226578048791	1049.812894157188	750.522855050236	297.581036581114	973.063824978498	608.986405988256	242.680790205529	1073.679631632708	555.989145367317	313.079756281809	1081.701753569411	481.760290388794	323.551393147287	1045.799877532664	405.682369778217	319.079849427216	948.239026254181	298.769250908766	266.689250302512	981.242403124695	185.737409609212	342.161362866688	998.182965002614	393.100661806362	559.306993259514	882.778303223865	357.839428831184	632.361478561231	866.305701433737	245.125335875984	593.712869191532	664.071838476655	179.822575801422	584.389306943885	832.564917773666	123.336060606454	622.558535115450	725.464111859971	123.550960228711	657.762494694039	898.582291172753	31.700760570058	647.897528785020	838.023806391971	38.838636698961	380.987845251434	912.959404033188	35.848438481338	301.488550445553	996.676306318415	95.553129960199	330.544750203672	1124.964085812963	42.495432691977	301.964240629994	952.902757250675	1075.326218133530	102.946442843659	1043.017954994584	829.805758338366	106.348778560259	1032.107640008280	1068.999948879971	677.868966914694	1194.067304820837	869.866637682176	664.951045200212	
54	40.822214285714	770.554280835255	990.870544377332	418.430706137108	945.161021567498	1422.172837742241	234.836536807610	1053.507286196134	1349.360102637394	389.254029786340	981.717415622861	1419.759441231388	568.499803285531	933.566412172611	1481.672255923029	394.413320913388	1005.450502997931	929.523111923667	525.567602390938	981.167431283137	950.539026581822	253.937532559542	1063.099793882380	735.226992983028	505.833149089862	1003.453683718278	626.092449256640	584.325973839074	1083.040340991493	569.529392584589	505.363862233432	1086.208773150609	461.659930053901	534.152514999988	1051.575283354879	748.952522928467	295.037251088535	975.749991833991	606.775405408969	240.525077602022	1076.225266162716	554.474196911601	311.964266059716	1084.500667197392	479.950494347477	322.862728632671	1047.321448804143	403.501142010678	318.578340225569	948.476269621324	297.767785933658	266.066063173741	979.012521524311	184.580792442078	342.171069000347	1008.959735068636	394.341209638509	554.669739958777	892.138190248223	362.694096962092	627.438555647648	873.058603818555	249.875781198960	589.911818764584	669.758586619157	192.240804249831	579.453992535156	835.445977714301	127.997233318775	619.826316383368	727.888769296002	134.000825039373	654.009764140956	896.180965948600	31.167597000992	647.399587010772	833.732283203328	38.905933166316	380.899919016746	908.696820806193	35.856641037942	301.444349612176	992.552218477140	95.402353671344	330.666747670446	1120.775528878049	42.009685847084	301.963608416910	968.566047395125	1076.595485277618	96.109863877135	1074.085325834359	837.225094453495	98.820995482541	1009.855959644798	1063.103757279339	675.766132474970	1150.027960759782	846.548240392786	668.485317083693	
55	40.844142857143	768.985766142029	988.581723222188	413.110569573480	947.184779080724	1421.226343041002	232.980514412860	1052.456041682882	1347.889355158765	389.211426986058	976.886056964517	1416.987331355736	567.525145451688	933.157039189223	1480.035541244066	392.620941546688	1003.209523953397	928.541891630473	523.260979146805	982.104997897432	949.144233850018	251.186812930741	1066.825889786026	737.840267427231	501.555185892871	1011.412148763708	627.032748910680	580.112594201774	1092.239766645145	572.681910186682	500.249608553720	1097.903665931779	463.642662592352	529.330681104656	1052.770470449246	747.494906697246	292.749638378570	977.293090292175	604.995088367146	238.575847575310	1077.484444773561	553.071262683745	310.938721738773	1085.832598318933	478.409409330788	322.255084782858	1047.624245863261	401.707708542157	318.081853863404	947.759432996455	296.916100558016	265.475726345712	976.317511754519	183.647320487305	342.123971362496	1019.370126548989	396.424157479213	550.103792477502	901.121651886495	367.742407939042	622.143767380881	880.167027783634	254.752476175210	585.639427077365	676.254200053037	203.422402560609	573.374573545876	839.389170878961	132.891435738134	616.414186186040	731.372632062753	143.870884478610	649.322572189060	895.460797833242	31.032800907044	646.571393793520	829.401875664895	38.958516074270	380.804829429459	904.398983457515	35.852479667882	301.385179769040	988.365390857714	95.285307921505	330.727771705356	1116.534074547183	41.632953213027	301.951363576126	983.959495484716	1079.220923769217	89.585440066218	1105.396949173062	847.363894429595	92.077213127509	986.678532448005	1059.179085256945	673.692556745056	1104.296039940803	828.236095056595	670.875171670259	
56	40.866071428571	767.572070995516	987.157178777926	408.264165959776	949.337040604812	1420.936873092520	231.425877798171	1051.436082225527	1347.185629447710	389.490453461228	972.010435792270	1415.233459539378	566.653606635861	932.756148591167	1479.125008843838	391.029223633872	1000.954831708180	928.275745751346	521.438684384367	983.059333990925	948.390095409587	248.954939801086	1069.982073256611	741.264143781749	497.761115592904	1018.665507777612	628.896262673994	576.433051703267	1100.575684432878	576.739999776075	495.683079125555	1108.721147156342	466.686311833993	524.994647393850	1053.313801385287	746.228915318466	290.773471746013	977.588650824319	603.754172486237	236.830607827670	1077.297817694421	551.847305675640	310.008681963648	1085.505779805421	477.206179187399	321.719556725881	1046.551744657926	400.387668437421	317.579480096222	945.990054887724	296.252608796840	264.894870859764	973.100300768620	182.979987017082	342.012394940512	1029.183927395463	399.325973204228	545.819441908172	909.519433166635	372.753258544773	616.673082990487	887.612327707672	259.497082512639	581.080687158848	683.527746823257	212.554286107079	566.405556427675	844.631012070839	137.717963925316	612.453046967434	736.113726422737	152.438425290420	643.882982722390	897.072459493719	31.402058317824	645.386384386232	825.025050603365	38.994205404397	380.703322111768	900.059927563509	35.836043235193	301.311963938502	984.106978747256	95.203943844183	330.724855651315	1112.234955741517	41.367010757379	301.930991820478	999.048085344931	1083.275875451351	83.428448875149	1136.630316036387	860.375340315190	86.230473137136	962.757605317152	1057.518293296573	671.677158369322	1057.815857360425	815.246280690316	672.113187257279	
